<svg width="11" height="15" viewBox="0 0 11 15" fill="none" xmlns="http://www.w3.org/2000/svg">
<path d="M0.468878 6.43105L8.00663 0.317834C8.8935 -0.403616 10.2864 0.182722 10.2864 1.27764L10.2864 13.5041C10.2866 13.7491 10.2106 13.989 10.0676 14.1951C9.92448 14.4011 9.72038 14.5646 9.47967 14.6659C9.23897 14.7671 8.97188 14.8019 8.71038 14.7661C8.44889 14.7303 8.20407 14.6254 8.00525 14.4639L0.470254 8.35067C0.322566 8.23103 0.204197 8.08348 0.123094 7.91794C0.0419918 7.75239 3.11177e-05 7.57268 3.11262e-05 7.39086C3.11347e-05 7.20904 0.0419919 7.02933 0.123094 6.86378C0.204197 6.69823 0.322566 6.55069 0.470254 6.43105L0.468878 6.43105Z" fill="#3395E7"/>
</svg>
